<svg xmlns="http://www.w3.org/2000/svg" width="516.896303037" height="132.100000000" viewBox="0 0 516.896303037 132.100000000">
  <title>InntQ. / Approved period added to the preserved wordmark</title>
  <path id="Wordmark-InntQ-I" d="M 2.8000000000000114,0.0 L 32.0,0.0 C 33.80000000000001,0.0 35.0,1.0 35.0,2.8000000000000114 L 35.0,127.19999999999999 C 35.0,129.0 33.80000000000001,130.0 32.0,130.0 L 2.8000000000000114,130.0 C 1.0,130.0 0.0,129.0 0.0,127.19999999999999 L 0.0,2.8000000000000114 C 0.0,1.0 1.0,0.0 2.8000000000000114,0.0" fill="#0E2D4D" fill-rule="evenodd" />
  <path id="Wordmark-InntQ-n01" d="M 51.30000000000001,28.399999999999977 L 107.80000000000001,28.399999999999977 C 133.10000000000002,28.399999999999977 151.8,45.80000000000001 151.8,73.30000000000001 L 151.8,127.30000000000001 C 151.8,129.0 150.8,130.0 149.10000000000002,130.0 L 121.19999999999999,130.0 C 119.5,130.0 118.5,129.0 118.5,127.30000000000001 L 118.5,76.5 C 118.5,64.30000000000001 111.19999999999999,56.19999999999999 98.5,56.19999999999999 L 83.1,56.19999999999999 C 81.0,56.19999999999999 80.0,57.19999999999999 80.0,59.30000000000001 L 80.0,127.30000000000001 C 80.0,129.0 79.0,130.0 77.30000000000001,130.0 L 51.30000000000001,130.0 C 49.599999999999994,130.0 48.599999999999994,129.0 48.599999999999994,127.30000000000001 L 48.599999999999994,31.100000000000023 C 48.599999999999994,29.399999999999977 49.599999999999994,28.399999999999977 51.30000000000001,28.399999999999977" fill="#0E2D4D" fill-rule="evenodd" />
  <path id="Wordmark-InntQ-n02" d="M 163.7,28.399999999999977 L 220.2,28.399999999999977 C 246.2,28.399999999999977 265.0,45.80000000000001 265.0,73.30000000000001 L 265.0,127.30000000000001 C 265.0,129.0 264.0,130.0 262.3,130.0 L 234.39999999999998,130.0 C 232.7,130.0 231.7,129.0 231.7,127.30000000000001 L 231.7,76.5 C 231.7,64.30000000000001 224.39999999999998,56.19999999999999 211.7,56.19999999999999 L 195.5,56.19999999999999 C 193.39999999999998,56.19999999999999 192.39999999999998,57.19999999999999 192.39999999999998,59.30000000000001 L 192.39999999999998,127.30000000000001 C 192.39999999999998,129.0 191.39999999999998,130.0 189.7,130.0 L 163.7,130.0 C 162.0,130.0 161.0,129.0 161.0,127.30000000000001 L 161.0,31.100000000000023 C 161.0,29.399999999999977 162.0,28.399999999999977 163.7,28.399999999999977" fill="#0E2D4D" fill-rule="evenodd" />
  <path id="Wordmark-InntQ-t" d="M 294.7,0.0 L 322.1,0.0 C 323.8,0.0 324.8,1.0 324.8,2.6999999999999886 L 324.8,28.399999999999977 L 355.1,28.399999999999977 C 356.79999999999995,28.399999999999977 357.79999999999995,29.399999999999977 357.79999999999995,31.100000000000023 L 357.79999999999995,54.5 C 357.79999999999995,56.19999999999999 356.79999999999995,57.19999999999999 355.1,57.19999999999999 L 324.8,57.19999999999999 L 324.8,90.19999999999999 C 324.8,100.10000000000002 330.9,105.39999999999998 339.8,105.39999999999998 L 355.1,105.39999999999998 C 356.79999999999995,105.39999999999998 357.79999999999995,106.39999999999998 357.79999999999995,108.10000000000002 L 357.79999999999995,127.30000000000001 C 357.79999999999995,129.0 356.79999999999995,130.0 355.1,130.0 L 336.8,130.0 C 308.3,130.0 292.0,113.0 292.0,88.19999999999999 L 292.0,57.19999999999999 L 274.4,57.19999999999999 C 272.7,57.19999999999999 271.7,56.19999999999999 271.7,54.5 L 271.7,31.100000000000023 C 271.7,29.399999999999977 272.7,28.399999999999977 274.4,28.399999999999977 L 292.0,28.399999999999977 L 292.0,2.6999999999999886 C 292.0,1.0 293.0,0.0 294.7,0.0" fill="#0E2D4D" fill-rule="evenodd" />
  <path id="Wordmark-InntQ-Q" d="M 452.8941687627564,104.91205483975529 L 465.35787991744206,115.99090919947585 C 466.266002008341,116.79812883583043 466.3477996094749,118.18868805510682 465.5405799731203,119.09681014600572 L 456.5052317650334,129.2615768801035 C 455.6980121286788,130.1696989710024 454.30745290940246,130.2514965721363 453.39933081850353,129.44427693578172 L 438.7244054110328,116.39989879580777 C 431.826507265527,120.09216949478585 423.89940722885706,122.19295808268524 415.4672991979354,122.19295808268524 C 388.8100059353954,122.19295808268524 367.19999999999965,101.19668923663556 367.19999999999965,75.29647904134258 C 367.19999999999965,49.396268846049594 388.8100059353954,28.399999999999928 415.4672991979354,28.399999999999928 C 442.1245924604754,28.399999999999928 463.73459839587116,49.396268846049594 463.73459839587116,75.29647904134258 C 463.7345983958711,86.52792041541034 459.6709203009981,96.83719457216966 452.8941687627564,104.91205483975529 M 430.8856090083102,85.34889061358086 L 422.72191417834534,78.09227298694542 C 421.8137920874465,77.28505335059084 420.4232328681701,77.36685095172474 419.6160132318155,78.27497304262364 L 410.58066502372856,88.4397397767214 C 409.77344538737395,89.3478618676203 409.85524298850794,90.73842108689671 410.7633650794068,91.54564072325128 L 414.6031472830875,94.95878045985634 C 405.5622991265422,94.37634854034117 398.39999999999964,86.42268922136955 398.39999999999964,76.69647904134258 C 398.39999999999964,66.5916126912103 406.13083318015,58.399999999999935 415.6672991979354,58.399999999999935 C 425.2037652157208,58.399999999999935 432.93459839587115,66.5916126912103 432.93459839587115,76.69647904134258 C 432.93459839587115,79.82636123803101 432.192910591546,82.7726879404622 430.8856090083102,85.34889061358086" fill="#0E2D4D" fill-rule="evenodd" />
  <path id="Wordmark-InntQ-period" d="M 516.8963030373386,116.60000000000002 C 516.8963030373386,125.16000000000003 509.8063030373386,132.10000000000002 501.0463030373386,132.10000000000002 C 492.2863030373386,132.10000000000002 485.1963030373387,125.16000000000003 485.1963030373387,116.60000000000002 C 485.1963030373387,108.04000000000002 492.2863030373386,101.10000000000002 501.0463030373386,101.10000000000002 C 509.8063030373386,101.10000000000002 516.8963030373386,108.04000000000002 516.8963030373386,116.60000000000002" fill="#0E2D4D" fill-rule="evenodd" />
</svg>
