<svg xmlns="http://www.w3.org/2000/svg" width="286.500000000" height="716.062000000" viewBox="0 0 286.500000000 716.062000000"><title>Logo / Symbol / Master2 / Micro</title><path id="Body / Initiating" fill="#111416" fill-rule="evenodd" d="M 224.5,16.561999999999983 L 224.5,285.062 C 224.5,302.562 217.29999999999995,314.76199999999994 202.0,322.26199999999994 L 93.5,377.86199999999997 C 70.39999999999998,389.36199999999997 56.30000000000001,406.062 56.30000000000001,429.062 L 56.30000000000001,442.062 C 56.30000000000001,448.562 52.5,451.062 46.0,451.062 L 37.0,451.062 C 15.5,451.062 0.0,439.962 0.0,420.86199999999997 L 0.0,119.06199999999998 C 0.0,104.56199999999998 6.800000000000011,94.16199999999998 21.0,87.26199999999997 L 201.39999999999998,2.8619999999999948 C 214.5,-3.4380000000000166 224.5,0.4619999999999891 224.5,16.561999999999983"/><path id="Body / Responding" fill="#111416" fill-rule="evenodd" d="M 286.5,379.562 L 286.5,673.062 C 286.5,699.362 268.1,716.062 241.0,716.062 L 16.0,716.062 L 81.0,573.062 C 91.10000000000002,550.862 99.0,531.062 100.39999999999998,514.7620000000001 L 107.80000000000001,457.562 C 109.10000000000002,440.16200000000003 118.19999999999999,432.462 135.0,424.562 L 254.70000000000005,363.962 C 271.4,355.76199999999994 286.5,361.36199999999997 286.5,379.562"/></svg>