<svg width="998" height="308" viewBox="0 0 998 308" fill="none" xmlns="http://www.w3.org/2000/svg">
<path fill-rule="evenodd" clip-rule="evenodd" d="M91.7314 6.76729V118.112C91.7314 125.262 88.7897 130.247 82.5381 133.312L39.8389 154.396C30.4001 159.095 24.6387 165.918 24.6387 175.316V180.628C24.6387 183.284 23.0861 184.306 20.4302 184.306H15.1182C6.33319 184.306 0 179.77 0 171.966V48.6492C0 42.7244 2.77839 38.4749 8.58057 35.6556L82.293 1.16942C87.6457 -1.40478 91.7314 0.188775 91.7314 6.76729Z" fill="black"/>
<path fill-rule="evenodd" clip-rule="evenodd" d="M117.065 153.456V275.016C117.065 285.762 109.547 292.586 98.4736 292.586H6.5376L33.0967 234.155C37.2236 225.084 39.6345 216.994 40.2065 210.334L42.4131 186.962C42.9443 179.852 46.6623 175.071 53.5269 171.843L104.071 147.082C110.895 143.731 117.065 146.019 117.065 153.456Z" fill="black"/>
<path fill-rule="evenodd" clip-rule="evenodd" d="M153.907 111.758H254.466C299.495 111.758 332.777 142.726 332.777 191.671V287.78C332.777 290.806 330.997 292.586 327.971 292.586H278.315C275.289 292.586 273.509 290.806 273.509 287.78V197.366C273.509 175.653 260.517 161.236 237.914 161.236H210.504C206.767 161.236 204.987 163.016 204.987 166.754V287.78C204.987 290.806 203.207 292.586 200.182 292.586H153.907C150.881 292.586 149.102 290.806 149.102 287.78V116.563C149.102 113.538 150.881 111.758 153.907 111.758Z" fill="black"/>
<path fill-rule="evenodd" clip-rule="evenodd" d="M353.957 111.758H454.515C500.79 111.758 534.25 142.726 534.25 191.671V287.78C534.25 290.806 532.47 292.586 529.445 292.586H479.789C476.763 292.586 474.983 290.806 474.983 287.78V197.366C474.983 175.653 461.991 161.236 439.387 161.236H410.554C406.817 161.236 405.037 163.016 405.037 166.754V287.78C405.037 290.806 403.257 292.586 400.231 292.586H353.957C350.931 292.586 349.151 290.806 349.151 287.78V116.563C349.151 113.538 350.931 111.758 353.957 111.758Z" fill="black"/>
<path fill-rule="evenodd" clip-rule="evenodd" d="M587.11 61.2114H635.877C638.903 61.2114 640.683 62.9912 640.683 66.0168V111.758H694.61C697.636 111.758 699.416 113.538 699.416 116.563V158.211C699.416 161.236 697.636 163.016 694.61 163.016H640.683V221.749C640.683 239.369 651.539 248.802 667.379 248.802H694.61C697.636 248.802 699.416 250.582 699.416 253.608V287.78C699.416 290.806 697.636 292.586 694.61 292.586H662.04C611.316 292.586 582.305 262.329 582.305 218.19V163.016H550.98C547.955 163.016 546.175 161.236 546.175 158.211V116.563C546.175 113.538 547.955 111.758 550.98 111.758H582.305V66.0168C582.305 62.9912 584.085 61.2114 587.11 61.2114Z" fill="black"/>
<path fill-rule="evenodd" clip-rule="evenodd" d="M881.36 259.269L905.389 280.628C907.14 282.185 907.298 284.866 905.742 286.616L888.322 306.213C886.766 307.964 884.085 308.122 882.334 306.566L854.042 281.417C840.743 288.535 825.46 292.586 809.203 292.586C757.809 292.586 716.146 252.106 716.146 202.172C716.146 152.237 757.809 111.758 809.203 111.758C860.597 111.758 902.26 152.237 902.26 202.172C902.26 223.825 894.425 243.701 881.36 259.269ZM846.706 228.465L828.953 212.685C827.202 211.129 824.522 211.287 822.965 213.037L805.545 232.635C803.989 234.385 804.147 237.066 805.898 238.623L818.437 249.769C815.581 250.397 812.621 250.728 809.588 250.728C785.687 250.728 766.311 230.197 766.311 204.871C766.311 179.545 785.687 159.014 809.588 159.014C833.49 159.014 852.866 179.545 852.866 204.871C852.866 213.5 850.617 221.572 846.706 228.465Z" fill="black"/>
<path fill-rule="evenodd" clip-rule="evenodd" d="M997.227 268.736C997.227 283.971 984.608 296.323 969.017 296.323C953.426 296.323 940.807 283.971 940.807 268.736C940.807 253.501 953.426 241.149 969.017 241.149C984.608 241.149 997.227 253.501 997.227 268.736Z" fill="black"/>
</svg>
