<svg xmlns="http://www.w3.org/2000/svg" width="1600.000000000" height="1200.000000000" viewBox="0 0 1600.000000000 1200.000000000">
  <title>05_Black_Overview / InntQ.</title>
  <rect id="05_Black_Overview / Background / White" width="1600" height="1200" fill="#FFFFFF" />
  <text id="05_Black_Overview / Variants / Heading" x="96" y="100" font-family="PingFang SC" font-size="28" font-weight="500" fill="#111416">标识组合与扩展 · 黑色</text>
  <text id="05_Black_Overview / Variants / Tag" x="1296" y="100" font-family="PingFang SC" font-size="22" font-weight="400" fill="#111416">InntQ. / 影拓</text>
  <text id="05_Black_Overview / Variants / Label 01" x="96" y="224" font-family="PingFang SC" font-size="20" font-weight="500" fill="#000000">独立图案</text>
  <path id="05_Black_Overview / Variant 01 / Body / Initiating" d="M 147.41733537040085,271.79320226460834 L 147.41733537040085,334.2039990950504 C 147.41733537040085,338.21203191902373 145.76831615139466,341.00620337345083 142.26415031100657,342.72393172658224 L 118.3304685907086,354.5419027961265 C 113.0398652630638,357.1757529375947 109.8105359591767,361.00056140390075 109.81053595917672,366.2682616868371 L 109.81053595917672,369.24565749893156 C 109.81053595917672,370.7343554049788 108.94022026025678,371.3069315226893 107.45152235420954,371.3069315226893 L 104.47412654211506,371.3069315226893 C 99.54997192980495,371.3069315226893 96.0,368.76469356005475 96.0,364.39021202074673 L 96.0,295.26882309073795 C 96.0,291.94788160801716 97.5574070401725,289.56596495834157 100.809639388768,287.98565487346065 L 142.12673204275603,268.65548513955497 C 145.12703089955895,267.21259332292453 147.41733537040085,268.1058120665529 147.41733537040085,271.79320226460834" fill="#000000" fill-rule="evenodd" />
  <path id="05_Black_Overview / Variant 01 / Body / Responding" d="M 161.61722308962067,354.0151327678329 L 161.61722308962067,422.1516907753797 C 161.61722308962067,428.1751915336939 157.40306286327157,431.9999999999999 151.19633774729,431.9999999999999 L 99.66448715334705,431.9999999999999 L 114.55146621381945,399.2486460669606 C 116.8646737293698,394.16417014169156 118.21595336716652,389.6293672894246 118.53659599308438,385.89617100195227 L 119.77336040733901,372.79562942873656 C 120.07109998854847,368.81049964947164 122.1552770570146,366.13084341858655 126.002988568029,364.3215028866215 L 154.33405487234342,350.4422577933195 C 158.1588633386494,348.5642081272291 161.6172230896207,349.84677863090064 161.6172230896207,354.0151327678329" fill="#000000" fill-rule="evenodd" />
  <text id="05_Black_Overview / Variants / Label 02" x="856" y="224" font-family="PingFang SC" font-size="20" font-weight="500" fill="#000000">中英文上下组合 · 等宽</text>
  <path id="05_Black_Overview / Variant 02 / Body / Initiating" d="M 907.4173353704009,271.7932022646084 L 907.4173353704009,334.20399909505045 C 907.4173353704009,338.2120319190238 905.7683161513947,341.0062033734509 902.2641503110066,342.72393172658235 L 878.3304685907086,354.5419027961266 C 873.0398652630638,357.1757529375948 869.8105359591767,361.00056140390075 869.8105359591767,366.26826168683715 L 869.8105359591767,369.2456574989317 C 869.8105359591767,370.7343554049789 868.9402202602568,371.3069315226894 867.4515223542096,371.3069315226894 L 864.4741265421151,371.3069315226894 C 859.549971929805,371.3069315226894 856.0,368.76469356005487 856.0,364.3902120207468 L 856.0,295.26882309073795 C 856.0,291.94788160801716 857.5574070401725,289.5659649583416 860.809639388768,287.9856548734607 L 902.1267320427561,268.65548513955497 C 905.127030899559,267.21259332292453 907.4173353704009,268.1058120665529 907.4173353704009,271.7932022646084" fill="#000000" fill-rule="evenodd" />
  <path id="05_Black_Overview / Variant 02 / Body / Responding" d="M 921.6172230896207,354.01513276783294 L 921.6172230896207,422.1516907753798 C 921.6172230896207,428.17519153369403 917.4030628632717,432.0 911.19633774729,432.0 L 859.6644871533471,432.0 L 874.5514662138195,399.2486460669607 C 876.8646737293698,394.16417014169167 878.2159533671665,389.62936728942464 878.5365959930843,385.8961710019524 L 879.773360407339,372.7956294287366 C 880.0710999885484,368.8104996494717 882.1552770570146,366.13084341858666 886.002988568029,364.32150288662154 L 914.3340548723435,350.4422577933196 C 918.1588633386494,348.5642081272292 921.6172230896208,349.84677863090064 921.6172230896208,354.01513276783294" fill="#000000" fill-rule="evenodd" />
  <path id="05_Black_Overview / Variant 02 / Wordmark-InntQ-I" d="M 943.203614439888,274.0157635750866 L 954.533124235532,274.0157635750866 C 955.2315186749895,274.0157635750866 955.6971149679612,274.4037604858963 955.6971149679612,275.1021549253539 L 955.6971149679612,323.3689706300837 C 955.6971149679612,324.0673650695412 955.2315186749895,324.4553619803509 954.533124235532,324.4553619803509 L 943.203614439888,324.4553619803509 C 942.5052200004304,324.4553619803509 942.1172230896208,324.0673650695412 942.1172230896208,323.3689706300837 L 942.1172230896208,275.1021549253539 C 942.1172230896208,274.4037604858963 942.5052200004304,274.0157635750866 943.2036144398879,274.0157635750866" fill="#000000" fill-rule="evenodd" />
  <path id="05_Black_Overview / Variant 02 / Wordmark-InntQ-n01" d="M 962.0214646141596,285.03487584208284 L 983.9432900749091,285.03487584208284 C 993.7596119183952,285.03487584208284 1001.015154150537,291.786022090172 1001.015154150537,302.4559371374395 L 1001.015154150537,323.40777032116466 C 1001.015154150537,324.06736506954115 1000.6271572397272,324.4553619803509 999.9675624913508,324.4553619803509 L 989.1424486797595,324.4553619803509 C 988.4828539313829,324.4553619803509 988.0948570205732,324.0673650695412 988.0948570205732,323.40777032116466 L 988.0948570205732,303.6975272520306 C 988.0948570205732,298.963964940152 985.2624795716622,295.82118996259317 980.3349188043786,295.82118996259317 L 974.359766377909,295.82118996259317 C 973.5449728652085,295.82118996259317 973.1569759543987,296.2091868734029 973.1569759543987,297.02398038610335 L 973.1569759543987,323.40777032116466 C 973.1569759543987,324.06736506954115 972.7689790435891,324.4553619803509 972.1093842952125,324.4553619803509 L 962.0214646141596,324.4553619803509 C 961.3618698657831,324.4553619803509 960.9738729549733,324.0673650695412 960.9738729549733,323.40777032116466 L 960.9738729549733,286.0824675012691 C 960.9738729549733,285.42287275289254 961.3618698657831,285.03487584208284 962.0214646141596,285.03487584208284" fill="#000000" fill-rule="evenodd" />
  <path id="05_Black_Overview / Variant 02 / Wordmark-InntQ-n02" d="M 1005.6323173891727,285.03487584208284 L 1027.5541428499223,285.03487584208284 C 1037.6420625309752,285.03487584208284 1044.936404454198,291.786022090172 1044.9364044541978,302.4559371374395 L 1044.9364044541978,323.40777032116466 C 1044.9364044541978,324.06736506954115 1044.5484075433883,324.4553619803509 1043.8888127950117,324.4553619803509 L 1033.0636989834204,324.4553619803509 C 1032.4041042350439,324.4553619803509 1032.016107324234,324.0673650695412 1032.016107324234,323.40777032116466 L 1032.016107324234,303.6975272520306 C 1032.016107324234,298.963964940152 1029.183729875323,295.82118996259317 1024.2561691080396,295.82118996259317 L 1017.970619152922,295.82118996259317 C 1017.1558256402216,295.82118996259317 1016.7678287294118,296.2091868734029 1016.7678287294118,297.02398038610335 L 1016.7678287294118,323.40777032116466 C 1016.7678287294118,324.06736506954115 1016.3798318186022,324.4553619803509 1015.7202370702256,324.4553619803509 L 1005.6323173891727,324.4553619803509 C 1004.9727226407963,324.4553619803509 1004.5847257299865,324.0673650695412 1004.5847257299865,323.40777032116466 L 1004.5847257299865,286.0824675012691 C 1004.5847257299865,285.42287275289254 1004.9727226407963,285.03487584208284 1005.6323173891727,285.03487584208284" fill="#000000" fill-rule="evenodd" />
  <path id="05_Black_Overview / Variant 02 / Wordmark-InntQ-t" d="M 1056.4599127052468,274.0157635750866 L 1067.0910280614332,274.0157635750866 C 1067.7506228098098,274.0157635750866 1068.1386197206195,274.4037604858963 1068.1386197206195,275.0633552342729 L 1068.1386197206195,285.03487584208284 L 1079.8949261181542,285.03487584208284 C 1080.5545208665308,285.03487584208284 1080.9425177773405,285.42287275289254 1080.9425177773405,286.0824675012691 L 1080.9425177773405,295.1615952142167 C 1080.9425177773405,295.82118996259317 1080.5545208665308,296.2091868734029 1079.8949261181542,296.2091868734029 L 1068.1386197206195,296.2091868734029 L 1068.1386197206195,309.01308493012385 C 1068.1386197206195,312.8542543471401 1070.5054008765587,314.91063797443167 1073.9585733827653,314.91063797443167 L 1079.8949261181542,314.91063797443167 C 1080.5545208665308,314.91063797443167 1080.9425177773405,315.29863488524137 1080.9425177773405,315.9582296336179 L 1080.9425177773405,323.40777032116466 C 1080.9425177773405,324.06736506954115 1080.5545208665308,324.4553619803509 1079.8949261181542,324.4553619803509 L 1072.7945826503362,324.4553619803509 C 1061.736670692259,324.4553619803509 1055.4123210460605,317.8594144965856 1055.4123210460605,308.2370911085044 L 1055.4123210460605,296.2091868734029 L 1048.5835754158093,296.2091868734029 C 1047.9239806674327,296.2091868734029 1047.535983756623,295.82118996259317 1047.535983756623,295.1615952142167 L 1047.535983756623,286.0824675012691 C 1047.535983756623,285.42287275289254 1047.9239806674327,285.03487584208284 1048.5835754158093,285.03487584208284 L 1055.4123210460605,285.03487584208284 L 1055.4123210460605,275.0633552342729 C 1055.4123210460605,274.4037604858963 1055.8003179568702,274.0157635750866 1056.4599127052468,274.0157635750866" fill="#000000" fill-rule="evenodd" />
  <path id="05_Black_Overview / Variant 02 / Wordmark-InntQ-Q" d="M 1129.6799566322616,316.27851229565033 L 1137.4872375050415,323.21831751589923 C 1137.8395860709484,323.53151624114975 1137.8713232875,324.071048922527 1137.5581245622495,324.4233974884338 L 1134.0524373694216,328.36729558036524 C 1133.739238644171,328.71964414627206 1133.1997059627938,328.7513813628237 1132.847357396887,328.43818263757316 L 1124.1577740814896,320.7141085794422 C 1120.2004454551256,323.0865141989634 1115.5380922355741,324.4553619803509 1110.5466820721224,324.4553619803509 C 1096.2110305027527,324.4553619803509 1084.5896887389517,313.16407327112734 1084.5896887389517,299.23556277771877 C 1084.5896887389517,285.3070522843102 1096.2110305027527,274.0157635750866 1110.5466820721224,274.0157635750866 C 1124.882333641492,274.0157635750866 1136.503675405293,285.3070522843102 1136.503675405293,299.23556277771877 C 1136.503675405293,305.80629650581557 1133.9174006643257,311.790128977122 1129.6799566322616,316.27851229565033 M 1121.3101048925596,308.83864408258194 L 1117.811371351059,305.7286587123591 C 1117.4590227851522,305.4154599871086 1116.919490103775,305.4471972036602 1116.6062913785245,305.79954576956703 L 1113.1006041856965,309.7434438614984 C 1112.7874054604458,310.0957924274053 1112.8191426769974,310.63532510878247 1113.1714912429043,310.94852383403304 L 1115.4953712640245,313.0141949639175 C 1113.979163387156,313.5881081365022 1112.3378578447375,313.90184600632637 1110.6242814542843,313.90184600632637 C 1102.9314579663865,313.90184600632637 1096.6951923562153,307.57872432916116 1096.6951923562153,299.7787584528524 C 1096.6951923562153,291.9787925765436 1102.9314579663865,285.6556708993784 1110.6242814542843,285.6556708993784 C 1118.3171049421824,285.6556708993784 1124.5533705523535,291.9787925765436 1124.5533705523535,299.7787584528524 C 1124.5533705523535,303.22689539494036 1123.334638566469,306.3864177435882 1121.3101048925596,308.83864408258194" fill="#000000" fill-rule="evenodd" />
  <path id="05_Black_Overview / Variant 02 / Wordmark-InntQ-period" d="M 1157.483986463566,319.2562033755006 C 1157.483986463566,322.57745693203185 1154.7330883659251,325.27015549305133 1151.3342354272318,325.27015549305133 C 1147.9353824885386,325.27015549305133 1145.1844843908978,322.57745693203185 1145.1844843908978,319.2562033755006 C 1145.1844843908978,315.93494981896936 1147.9353824885386,313.2422512579499 1151.3342354272318,313.2422512579499 C 1154.7330883659251,313.2422512579499 1157.483986463566,315.93494981896936 1157.483986463566,319.2562033755006" fill="#000000" fill-rule="evenodd" />
  <path id="05_Black_Overview / Variant 02 / Divider / Horizontal" d="M 942.1172230896208,333.5652598030889 L 1157.483986463566,333.5652598030889 L 1157.483986463566,333.9923431364223 L 942.1172230896207,333.9923431364223 L 942.1172230896208,333.5652598030889" fill="#000000" fill-rule="evenodd" />
  <path id="05_Black_Overview / Variant 02 / Chinese / Ying / Upper" d="M 946.7858711175196,338.9038014697556 L 1004.8394944209583,338.9038014697556 Q 1006.0574026021493,338.9038014697556 1006.0574026021493,340.1217096509466 L 1006.0574026021493,361.63808751865463 C 1006.0574026021493,366.50972024341866 1003.2156168460369,368.9455366058007 998.3439841212728,368.9455366058007 L 981.6992389783288,368.9455366058007 L 981.6992389783288,373.8171693305648 L 1008.087249570801,373.8171693305648 L 1008.087249570801,381.9365572051716 L 942.7261771802163,381.9365572051716 L 942.7261771802163,375.44104690548613 Q 942.7261771802163,373.8171693305648 944.7560241488679,373.8171693305648 L 967.8962795914973,373.8171693305648 L 967.8962795914973,368.9455366058007 L 945.1619935425983,368.9455366058007 L 945.1619935425983,340.5276790446769 Q 945.1619935425983,338.9038014697556 946.7858711175196,338.9038014697556 M 959.3709223231601,346.2112505569017 L 991.8484738215874,346.2112505569017 L 991.8484738215874,350.6769138879354 L 959.3709223231601,350.6769138879354 L 959.3709223231601,346.2112505569017 M 959.3709223231601,357.1724241876209 L 991.8484738215874,357.1724241876209 L 991.8484738215874,360.01420994373325 Q 991.8484738215874,361.2321181249243 990.224596246666,361.2321181249243 L 959.3709223231601,361.2321181249243 L 959.3709223231601,357.1724241876209" fill="#000000" fill-rule="evenodd" />
  <path id="05_Black_Overview / Variant 02 / Chinese / Ying / Lower" d="M 947.19184051125,385.996251142475 L 1001.5917392711156,385.996251142475 Q 1004.8394944209583,385.996251142475 1004.8394944209583,389.2440062923177 L 1004.8394944209583,401.4230881042279 Q 1004.8394944209583,407.9185984039134 998.3439841212728,407.9185984039134 L 981.6992389783288,407.9185984039134 L 981.6992389783288,420.70663430641906 Q 981.6992389783288,425.57826703118315 976.4216368598345,425.57826703118315 L 964.0395703510591,425.57826703118315 L 964.0395703510591,418.67678733776734 L 966.6783714103063,418.67678733776734 Q 968.0992642883625,418.67678733776734 968.0992642883625,417.25589445971116 L 968.0992642883625,407.9185984039134 L 944.9590088457331,407.9185984039134 L 944.9590088457331,387.8231134142615 Q 944.9590088457331,385.996251142475 947.19184051125,385.996251142475 M 959.3709223231601,393.5066849264863 L 990.224596246666,393.5066849264863 L 990.224596246666,398.5813023481155 Q 990.224596246666,400.4081646199021 988.1947492780143,400.40816461990204 L 959.3709223231601,400.40816461990204 L 959.3709223231601,393.5066849264863" fill="#000000" fill-rule="evenodd" />
  <path id="05_Black_Overview / Variant 02 / Chinese / Ying / Left Foot" d="M 948.409748692441,411.16635355375604 L 961.4007692918119,411.16635355375604 L 954.9052589921264,424.96931294058766 L 942.1172230896208,424.96931294058766 L 948.409748692441,411.16635355375604" fill="#000000" fill-rule="evenodd" />
  <path id="05_Black_Overview / Variant 02 / Chinese / Ying / Right Foot" d="M 987.5857951874189,411.16635355375604 L 999.764876999329,411.16635355375604 L 1006.2603872990144,424.96931294058766 L 993.4723513965087,424.96931294058766 L 987.5857951874187,411.16635355375604" fill="#000000" fill-rule="evenodd" />
  <path id="05_Black_Overview / Variant 02 / Chinese / Ying / Upper Diagonal" d="M 1010.523065933183,357.1724241876209 L 1029.603627438509,340.1217096509466 Q 1030.4155662259695,339.30977086348594 1032.039443800891,339.30977086348594 L 1041.7827092504192,339.30977086348594 L 1041.7827092504192,343.7754341945197 L 1016.2066374454078,366.3067355465535 L 1009.7111271457223,366.3067355465535 L 1009.7111271457223,358.39033236881187 Q 1009.7111271457223,357.7813782782164 1010.523065933183,357.1724241876209" fill="#000000" fill-rule="evenodd" />
  <path id="05_Black_Overview / Variant 02 / Chinese / Ying / Middle Diagonal" d="M 1009.7111271457223,386.8081899299357 L 1039.5498775849023,361.2321181249243 Q 1041.1737551598237,359.8112252468681 1041.1737551598237,362.4500263061153 L 1041.1737551598237,375.03507751175584 L 1015.8006680516773,396.34847068259864 L 1009.7111271457223,396.34847068259864 L 1009.7111271457223,386.8081899299357" fill="#000000" fill-rule="evenodd" />
  <path id="05_Black_Overview / Variant 02 / Chinese / Ying / Lower Diagonal" d="M 1008.6962036613965,418.27081794403705 Q 1008.6962036613965,417.45887915657636 1009.7111271457223,416.44395567225047 L 1039.143908191172,391.0708685641042 Q 1041.1737551598237,389.64997568604804 1041.1737551598237,392.49176144216045 L 1041.1737551598237,404.2648738603403 L 1017.4245456265987,424.15737415312697 Q 1016.2066374454078,424.96931294058766 1014.9887292642168,424.96931294058766 L 1008.6962036613965,424.96931294058766 L 1008.6962036613965,418.27081794403705" fill="#000000" fill-rule="evenodd" />
  <path id="05_Black_Overview / Variant 02 / Chinese / Tuo / Upper Hand" d="M 1068.7796739334867,338.9038014697556 L 1079.5378628673407,338.9038014697556 Q 1081.5677098359924,338.9038014697556 1081.5677098359924,340.93364843840726 L 1081.5677098359924,350.87989858480057 L 1092.1229140729813,350.87989858480057 L 1092.1229140729813,359.6082405500029 Q 1092.1229140729813,362.4500263061153 1089.281128316869,362.4500263061153 L 1081.5677098359924,362.4500263061153 L 1081.5677098359924,374.22313872429515 L 1067.1557963585653,379.7037255396547 L 1067.1557963585653,362.4500263061153 L 1055.991638030981,362.4500263061153 L 1055.991638030981,353.11273025031744 Q 1055.991638030981,350.87989858480057 1058.0214849996328,350.87989858480057 L 1067.1557963585653,350.87989858480057 L 1067.1557963585653,340.5276790446769 Q 1067.1557963585653,338.9038014697556 1068.7796739334867,338.9038014697556" fill="#000000" fill-rule="evenodd" />
  <path id="05_Black_Overview / Variant 02 / Chinese / Tuo / Diagonal" d="M 1057.209546212172,386.8081899299357 L 1091.1079905886554,371.58433766504794 L 1085.6274037732958,384.778342961284 Q 1084.8154649858352,386.8081899299357 1081.9736792297228,388.22908280799186 L 1055.991638030981,399.19025643871106 L 1055.991638030981,389.2440062923177 Q 1055.991638030981,387.62012871739637 1057.209546212172,386.8081899299357" fill="#000000" fill-rule="evenodd" />
  <path id="05_Black_Overview / Variant 02 / Chinese / Tuo / Lower Hand" d="M 1067.1557963585653,399.79921052930655 L 1081.5677098359924,390.8678838672391 L 1081.5677098359924,418.06783324717185 Q 1081.5677098359924,425.98423642491343 1073.4483219613858,425.98423642491343 L 1056.6005921215765,425.98423642491343 L 1056.6005921215765,418.06783324717185 Q 1056.6005921215765,415.2260474910595 1058.8334237870934,415.22604749105943 L 1065.3289340867789,415.22604749105943 Q 1067.1557963585653,415.22604749105943 1067.1557963585653,413.6021699161381 L 1067.1557963585653,399.79921052930655" fill="#000000" fill-rule="evenodd" />
  <path id="05_Black_Overview / Variant 02 / Chinese / Tuo / Stone" d="M 1097.4005161914756,338.9038014697556 L 1157.483986463566,338.9038014697556 L 1157.483986463566,347.4291587380927 Q 1157.483986463566,350.2709444942051 1155.048170101184,350.2709444942051 L 1123.3825573902175,350.2709444942051 L 1115.872123606206,368.9455366058007 L 1152.6123537388019,368.9455366058007 Q 1156.0630935855097,368.9455366058007 1156.0630935855097,372.19329175564343 L 1156.0630935855097,416.44395567225047 Q 1156.0630935855097,425.57826703118315 1145.7108740453862,425.57826703118315 L 1101.4602101287792,425.57826703118315 L 1101.4602101287792,398.5813023481155 L 1098.2124549789364,404.2648738603403 L 1085.2214343795654,404.2648738603403 L 1108.7676592159253,350.2709444942051 L 1095.7766386165545,350.2709444942051 L 1095.7766386165545,340.93364843840726 Q 1095.7766386165545,338.9038014697556 1097.4005161914756,338.9038014697556 M 1116.0751083030714,380.1096949333851 L 1140.636256623757,380.1096949333851 L 1140.636256623757,413.19620052240776 Q 1140.636256623757,415.0230627941943 1138.8093943519702,415.0230627941943 L 1116.0751083030714,415.0230627941943 L 1116.0751083030714,380.1096949333851" fill="#000000" fill-rule="evenodd" />
  <text id="05_Black_Overview / Variants / Label 03" x="96" y="510" font-family="PingFang SC" font-size="20" font-weight="500" fill="#000000">图案 + 英文</text>
  <path id="05_Black_Overview / Variant 03 / Body / Initiating" d="M 147.41733537040088,557.7932022646083 L 147.41733537040088,620.2039990950504 C 147.41733537040088,624.2120319190237 145.76831615139469,627.006203373451 142.2641503110066,628.7239317265824 L 118.33046859070862,640.5419027961266 C 113.0398652630638,643.1757529375948 109.81053595917672,647.0005614039007 109.81053595917672,652.2682616868371 L 109.81053595917672,655.2456574989317 C 109.81053595917672,656.7343554049789 108.9402202602568,657.3069315226894 107.45152235420954,657.3069315226894 L 104.47412654211507,657.3069315226894 C 99.54997192980495,657.3069315226894 96.0,654.7646935600549 96.0,650.3902120207468 L 96.0,581.2688230907379 C 96.0,577.9478816080172 97.5574070401725,575.5659649583416 100.809639388768,573.9856548734607 L 142.1267320427561,554.6554851395549 C 145.12703089955897,553.2125933229246 147.4173353704009,554.1058120665529 147.4173353704009,557.7932022646083" fill="#000000" fill-rule="evenodd" />
  <path id="05_Black_Overview / Variant 03 / Body / Responding" d="M 161.61722308962072,640.0151327678329 L 161.61722308962072,708.1516907753798 C 161.61722308962072,714.175191533694 157.4030628632716,718.0 151.19633774729004,718.0 L 99.66448715334705,718.0 L 114.55146621381948,685.2486460669606 C 116.86467372936981,680.1641701416917 118.21595336716652,675.6293672894246 118.53659599308439,671.8961710019523 L 119.77336040733903,658.7956294287367 C 120.07109998854848,654.8104996494717 122.15527705701462,652.1308434185867 126.00298856802902,650.3215028866216 L 154.33405487234347,636.4422577933195 C 158.15886333864944,634.5642081272292 161.61722308962072,635.8467786309006 161.61722308962072,640.0151327678329" fill="#000000" fill-rule="evenodd" />
  <path id="05_Black_Overview / Variant 03 / Wordmark-InntQ-I" d="M 201.59222308962075,578.7708333333334 L 226.53388975628744,578.7708333333334 C 228.07138975628746,578.7708333333334 229.09638975628744,579.625 229.09638975628744,581.1625 L 229.09638975628744,687.4208333333333 C 229.09638975628744,688.9583333333335 228.07138975628746,689.8125000000001 226.53388975628744,689.8125000000001 L 201.59222308962075,689.8125000000001 C 200.05472308962075,689.8125000000001 199.2005564229541,688.9583333333335 199.2005564229541,687.4208333333333 L 199.2005564229541,581.1625 C 199.2005564229541,579.625 200.05472308962075,578.7708333333334 201.59222308962075,578.7708333333334" fill="#000000" fill-rule="evenodd" />
  <path id="05_Black_Overview / Variant 03 / Wordmark-InntQ-n01" d="M 243.01930642295414,603.0291666666667 L 291.2797230896208,603.0291666666667 C 312.8901397562875,603.0291666666667 328.8630564229542,617.8916666666668 328.8630564229542,641.38125 L 328.8630564229542,687.5062500000001 C 328.8630564229542,688.9583333333334 328.00888975628754,689.8125000000001 326.5568064229542,689.8125000000001 L 302.7255564229541,689.8125000000001 C 301.27347308962084,689.8125000000001 300.41930642295415,688.9583333333335 300.41930642295415,687.5062500000001 L 300.41930642295415,644.1145833333334 C 300.41930642295415,633.69375 294.1838897562875,626.7750000000001 283.3359730896208,626.7750000000001 L 270.1818064229541,626.7750000000001 C 268.38805642295415,626.7750000000001 267.53388975628746,627.6291666666667 267.53388975628746,629.4229166666668 L 267.53388975628746,687.5062500000001 C 267.53388975628746,688.9583333333334 266.6797230896208,689.8125000000001 265.2276397562875,689.8125000000001 L 243.01930642295414,689.8125000000001 C 241.56722308962077,689.8125000000001 240.7130564229541,688.9583333333335 240.71305642295408,687.5062500000001 L 240.71305642295408,605.3354166666667 C 240.71305642295408,603.8833333333333 241.56722308962074,603.0291666666667 243.01930642295412,603.0291666666667" fill="#000000" fill-rule="evenodd" />
  <path id="05_Black_Overview / Variant 03 / Wordmark-InntQ-n02" d="M 339.0276397562875,603.0291666666667 L 387.2880564229542,603.0291666666667 C 409.49638975628756,603.0291666666667 425.5547230896209,617.8916666666668 425.5547230896209,641.38125 L 425.5547230896209,687.5062500000001 C 425.5547230896209,688.9583333333334 424.7005564229542,689.8125000000001 423.2484730896209,689.8125000000001 L 399.41722308962085,689.8125000000001 C 397.9651397562875,689.8125000000001 397.11097308962087,688.9583333333335 397.11097308962087,687.5062500000001 L 397.11097308962087,644.1145833333334 C 397.11097308962087,633.69375 390.8755564229542,626.7750000000001 380.02763975628756,626.7750000000001 L 366.1901397562875,626.7750000000001 C 364.3963897562875,626.7750000000001 363.54222308962085,627.6291666666667 363.54222308962085,629.4229166666668 L 363.54222308962085,687.5062500000001 C 363.54222308962085,688.9583333333334 362.68805642295416,689.8125000000001 361.23597308962087,689.8125000000001 L 339.0276397562875,689.8125000000001 C 337.57555642295415,689.8125000000001 336.7213897562875,688.9583333333335 336.7213897562875,687.5062500000001 L 336.7213897562875,605.3354166666667 C 336.7213897562875,603.8833333333333 337.57555642295415,603.0291666666667 339.0276397562875,603.0291666666667" fill="#000000" fill-rule="evenodd" />
  <path id="05_Black_Overview / Variant 03 / Wordmark-InntQ-t" d="M 450.9234730896209,578.7708333333334 L 474.3276397562876,578.7708333333334 C 475.779723089621,578.7708333333334 476.6338897562876,579.625 476.6338897562876,581.0770833333333 L 476.6338897562876,603.0291666666667 L 502.5151397562876,603.0291666666667 C 503.9672230896209,603.0291666666667 504.82138975628754,603.8833333333333 504.8213897562876,605.3354166666667 L 504.8213897562876,625.3229166666667 C 504.8213897562876,626.7750000000001 503.9672230896209,627.6291666666667 502.5151397562876,627.6291666666667 L 476.6338897562876,627.6291666666667 L 476.6338897562876,655.8166666666667 C 476.6338897562876,664.2729166666668 481.8443064229542,668.8000000000001 489.4463897562876,668.8000000000001 L 502.5151397562876,668.8000000000001 C 503.9672230896209,668.8000000000001 504.82138975628754,669.6541666666667 504.8213897562876,671.10625 L 504.8213897562876,687.5062500000001 C 504.8213897562876,688.9583333333334 503.9672230896209,689.8125000000001 502.5151397562876,689.8125000000001 L 486.8838897562876,689.8125000000001 C 462.5401397562876,689.8125000000001 448.6172230896209,675.2916666666667 448.6172230896209,654.1083333333333 L 448.6172230896209,627.6291666666667 L 433.58388975628753,627.6291666666667 C 432.1318064229542,627.6291666666667 431.27763975628756,626.7750000000001 431.27763975628756,625.3229166666667 L 431.27763975628756,605.3354166666667 C 431.27763975628756,603.8833333333333 432.13180642295424,603.0291666666667 433.58388975628753,603.0291666666667 L 448.6172230896209,603.0291666666667 L 448.6172230896209,581.0770833333333 C 448.6172230896209,579.625 449.4713897562876,578.7708333333334 450.92347308962087,578.7708333333334" fill="#000000" fill-rule="evenodd" />
  <path id="05_Black_Overview / Variant 03 / Wordmark-InntQ-Q" d="M 612.1157896052439,671.8113452370947 L 629.3033467559329,687.0891738154849 C 630.0790343752424,687.7786739215378 630.1489031595443,688.9664432546697 629.4594030534914,689.7421308739791 L 621.7417097924172,698.4245357926877 C 621.0522096863642,699.2002234119972 619.8644403532323,699.2700921962991 619.0887527339229,698.5805920902462 L 599.958826158618,681.5762129121972 C 591.2468542137083,686.7990117117513 580.9827861311664,689.8125000000001 569.9943064229544,689.8125000000001 C 538.4346847498109,689.8125000000001 512.8505564229542,664.9549762145639 512.8505564229542,634.2916666666667 C 512.8505564229542,603.6283571187695 538.4346847498109,578.7708333333334 569.9943064229544,578.7708333333334 C 601.5539280960978,578.7708333333334 627.1380564229544,603.6283571187695 627.1380564229544,634.2916666666667 C 627.1380564229544,648.7569924713741 621.4444294557553,661.9302680658649 612.1157896052439,671.8113452370947 M 593.6897450625816,655.4326389769503 L 585.9873601119857,648.5860745764206 C 585.2116724926763,647.8965744703678 584.0239031595443,647.9664432546697 583.3344030534914,648.7421308739791 L 575.6167097924172,657.4245357926876 C 574.9272096863642,658.2002234119972 574.9970784706661,659.387992745129 575.7727660899757,660.0774928511819 L 580.888736851781,664.6250224172311 C 577.5508385539426,665.8884796456915 573.9375404964312,666.5791666666668 570.1651397562875,666.5791666666668 C 553.2295580213721,666.5791666666668 539.5005564229543,652.6589533468225 539.5005564229543,635.4875000000001 C 539.5005564229543,618.3160466531776 553.2295580213721,604.3958333333334 570.1651397562875,604.3958333333334 C 587.1007214912031,604.3958333333334 600.829723089621,618.3160466531776 600.829723089621,635.4875000000001 C 600.829723089621,643.078497649664 598.1467114239599,650.0341166188234 593.6897450625816,655.4326389769503" fill="#000000" fill-rule="evenodd" />
  <path id="05_Black_Overview / Variant 03 / Wordmark-InntQ-period" d="M 673.3257498375112,678.3666666666668 C 673.3257498375112,685.6783333333334 667.2697081708445,691.60625 659.7872081708446,691.60625 C 652.3047081708446,691.60625 646.248666504178,685.6783333333334 646.248666504178,678.3666666666668 C 646.248666504178,671.0550000000001 652.3047081708446,665.1270833333334 659.7872081708446,665.1270833333334 C 667.2697081708445,665.1270833333334 673.3257498375112,671.0550000000001 673.3257498375112,678.3666666666668" fill="#000000" fill-rule="evenodd" />
  <text id="05_Black_Overview / Variants / Label 04" x="856" y="510" font-family="PingFang SC" font-size="20" font-weight="500" fill="#000000">图案 + 中英文</text>
  <path id="05_Black_Overview / Variant 04 / Body / Initiating" d="M 892.9019375474992,556.7223603102971 L 892.9019375474992,601.5142444158361 C 892.9019375474992,604.3907874317881 891.7184455637931,606.3961488486233 889.2035250984179,607.628952998317 L 872.0264539460186,616.1106455482098 C 868.2294171649619,618.0009452444069 865.9117453635376,620.7459891510583 865.9117453635376,624.5265885434525 L 865.9117453635376,626.6634490695883 C 865.9117453635376,627.7318793326561 865.2871245943595,628.1428140492208 864.2186943312915,628.1428140492208 L 862.0818338051557,628.1428140492208 C 858.5477952427004,628.1428140492208 856.0,626.318263907674 856.0,623.1787226731207 L 856.0,573.5706836894448 C 856.0,571.1872623333702 857.1177424290556,569.4777739124615 859.4518516191424,568.3435940947433 L 889.1049007664425,554.4704380635231 C 891.2581986812409,553.4348825777804 892.9019375474992,554.0759407356211 892.9019375474992,556.7223603102971" fill="#000000" fill-rule="evenodd" />
  <path id="05_Black_Overview / Variant 04 / Body / Responding" d="M 903.0931185183007,615.7325856089705 L 903.0931185183007,664.6338168801553 C 903.0931185183007,668.9568500984147 900.0686390043854,671.701894005066 895.6141066768254,671.701894005066 L 858.6299821860133,671.701894005066 L 869.3142848166923,648.1964282175722 C 870.9744610716133,644.5473279344787 871.9442670027056,641.2927249792873 872.1743904439818,638.6134306272862 L 873.0620094317613,629.2112443122887 C 873.2756954843749,626.3511386849992 874.77149785267,624.4279642114769 877.532979147984,623.1294105071329 L 897.8660289235993,613.1683529776075 C 900.6110728302507,611.8204871072757 903.0931185183007,612.7409808723803 903.0931185183007,615.7325856089705" fill="#000000" fill-rule="evenodd" />
  <path id="05_Black_Overview / Variant 04 / Wordmark-InntQ-I" d="M 931.7829551820356,571.7778902403485 L 949.6834515619727,571.7778902403485 C 950.7869068182703,571.7778902403485 951.5225436558019,572.3909209382916 951.5225436558019,573.4943761945891 L 951.5225436558019,649.7553950187048 C 951.5225436558019,650.8588502750024 950.7869068182703,651.4718809729454 949.6834515619727,651.4718809729454 L 931.7829551820356,651.4718809729454 C 930.6794999257381,651.4718809729454 930.066469227795,650.8588502750024 930.066469227795,649.7553950187048 L 930.066469227795,573.4943761945891 C 930.066469227795,572.3909209382916 930.6794999257381,571.7778902403485 931.7829551820356,571.7778902403485" fill="#000000" fill-rule="evenodd" />
  <path id="05_Black_Overview / Variant 04 / Wordmark-InntQ-n01" d="M 961.5149440322737,589.1879620619312 L 996.1511784660561,589.1879620619312 C 1011.6608551240154,589.1879620619312 1023.1245291755505,599.8546962061404 1023.1245291755505,616.7130403995743 L 1023.1245291755505,649.8166980884992 C 1023.1245291755505,650.8588502750024 1022.5114984776073,651.4718809729454 1021.4693462911042,651.4718809729454 L 1004.365789818493,651.4718809729454 C 1003.3236376319899,651.4718809729454 1002.7106069340468,650.8588502750024 1002.7106069340468,649.8166980884992 L 1002.7106069340468,618.6747386329921 C 1002.7106069340468,611.1957641180868 998.2354828390625,606.2302154647481 990.4499929751858,606.2302154647481 L 981.0093202268627,606.2302154647481 C 979.7219557611824,606.2302154647481 979.1089250632392,606.8432461626911 979.1089250632392,608.1306106283715 L 979.1089250632392,649.8166980884992 C 979.1089250632392,650.8588502750024 978.4958943652962,651.4718809729454 977.453742178793,651.4718809729454 L 961.5149440322737,651.4718809729454 C 960.4727918457704,651.4718809729454 959.8597611478274,650.8588502750024 959.8597611478274,649.8166980884992 L 959.8597611478274,590.8431449463775 C 959.8597611478274,589.8009927598742 960.4727918457704,589.1879620619312 961.5149440322737,589.1879620619312" fill="#000000" fill-rule="evenodd" />
  <path id="05_Black_Overview / Variant 04 / Wordmark-InntQ-n02" d="M 1030.4195944810729,589.1879620619312 L 1065.0558289148553,589.1879620619312 C 1080.9946270613746,589.1879620619312 1092.519604182704,599.8546962061404 1092.519604182704,616.7130403995743 L 1092.519604182704,649.8166980884992 C 1092.519604182704,650.8588502750024 1091.9065734847609,651.4718809729454 1090.8644212982579,651.4718809729454 L 1073.7608648256466,651.4718809729454 C 1072.7187126391434,651.4718809729454 1072.1056819412004,650.8588502750024 1072.1056819412004,649.8166980884992 L 1072.1056819412004,618.6747386329921 C 1072.1056819412004,611.1957641180868 1067.630557846216,606.2302154647481 1059.8450679823393,606.2302154647481 L 1049.9139706756619,606.2302154647481 C 1048.6266062099814,606.2302154647481 1048.0135755120384,606.8432461626911 1048.0135755120384,608.1306106283715 L 1048.0135755120384,649.8166980884992 C 1048.0135755120384,650.8588502750024 1047.4005448140954,651.4718809729454 1046.3583926275921,651.4718809729454 L 1030.4195944810729,651.4718809729454 C 1029.3774422945696,651.4718809729454 1028.7644115966266,650.8588502750024 1028.7644115966266,649.8166980884992 L 1028.7644115966266,590.8431449463775 C 1028.7644115966266,589.8009927598742 1029.3774422945696,589.1879620619312 1030.4195944810729,589.1879620619312" fill="#000000" fill-rule="evenodd" />
  <path id="05_Black_Overview / Variant 04 / Wordmark-InntQ-t" d="M 1110.7266159116127,571.7778902403485 L 1127.5236570352524,571.7778902403485 C 1128.5658092217554,571.7778902403485 1129.1788399196985,572.3909209382916 1129.1788399196985,573.4330731247948 L 1129.1788399196985,589.1879620619312 L 1147.7536700673732,589.1879620619312 C 1148.7958222538762,589.1879620619312 1149.4088529518194,589.8009927598742 1149.4088529518194,590.8431449463775 L 1149.4088529518194,605.188063278245 C 1149.4088529518194,606.2302154647481 1148.7958222538764,606.8432461626911 1147.7536700673732,606.8432461626911 L 1129.1788399196985,606.8432461626911 L 1129.1788399196985,627.073259194812 C 1129.1788399196985,633.1422631044481 1132.9183271771512,636.3913258035464 1138.3743003888444,636.3913258035464 L 1147.7536700673732,636.3913258035464 C 1148.7958222538762,636.3913258035464 1149.4088529518194,637.0043565014894 1149.4088529518194,638.0465086879925 L 1149.4088529518194,649.8166980884992 C 1149.4088529518194,650.8588502750024 1148.7958222538764,651.4718809729454 1147.7536700673732,651.4718809729454 L 1136.5352082950153,651.4718809729454 C 1119.0638334036382,651.4718809729454 1109.0714330271664,641.0503591079134 1109.0714330271664,625.8471977989258 L 1109.0714330271664,606.8432461626911 L 1098.2820927433688,606.8432461626911 C 1097.2399405568656,606.8432461626911 1096.6269098589225,606.2302154647481 1096.6269098589225,605.188063278245 L 1096.6269098589225,590.8431449463775 C 1096.6269098589225,589.8009927598742 1097.2399405568656,589.1879620619312 1098.2820927433688,589.1879620619312 L 1109.0714330271664,589.1879620619312 L 1109.0714330271664,573.4330731247948 C 1109.0714330271664,572.3909209382916 1109.6844637251095,571.7778902403485 1110.7266159116127,571.7778902403485" fill="#000000" fill-rule="evenodd" />
  <path id="05_Black_Overview / Variant 04 / Wordmark-InntQ-Q" d="M 1226.413450990594,638.5525516444559 L 1238.7488658074012,649.5173648149513 C 1239.3055725266026,650.0122152320191 1239.3557169671158,650.8646707207432 1238.860866550048,651.4213774399445 L 1233.321920731886,657.6526914853769 C 1232.8270703148182,658.2093982045781 1231.974614826094,658.2595426450913 1231.4179081068928,657.7646922280235 L 1217.6884654843852,645.5607432302389 C 1211.4359313475873,649.3091170760614 1204.0694663871475,651.4718809729454 1196.1830952048742,651.4718809729454 C 1173.5329290767504,651.4718809729454 1155.171341512484,633.6317734740319 1155.171341512484,611.624885606647 C 1155.171341512484,589.617997739262 1173.5329290767504,571.7778902403485 1196.1830952048742,571.7778902403485 C 1218.833261332998,571.7778902403485 1237.1948488972646,589.617997739262 1237.1948488972646,611.624885606647 C 1237.1948488972646,622.0065700250276 1233.108564276547,631.4609571452853 1226.413450990594,638.5525516444559 M 1213.1891806144167,626.7976446434094 L 1207.6612214861163,621.8839031960314 C 1207.1045147669151,621.3890527789636 1206.252059278191,621.4391972194767 1205.7572088611232,621.995903938678 L 1200.218263042961,628.2272179841102 C 1199.7234126258934,628.7839247033115 1199.7735570664065,629.6363801920356 1200.3302637856077,630.1312306091035 L 1204.0019677388946,633.3949674564694 C 1201.6063765702856,634.3017437295438 1199.0131325155667,634.7974459888944 1196.305701344463,634.7974459888944 C 1184.1511278915534,634.7974459888944 1174.2978992883072,624.8069857895028 1174.2978992883072,612.4831285837672 C 1174.2978992883072,600.1592713780317 1184.1511278915534,590.1688111786401 1196.305701344463,590.1688111786401 C 1208.4602747973724,590.1688111786401 1218.3135034006184,600.1592713780317 1218.3135034006184,612.4831285837672 C 1218.3135034006184,617.9311456615321 1216.387920750094,622.9231549703592 1213.1891806144167,626.7976446434094" fill="#000000" fill-rule="evenodd" />
  <path id="05_Black_Overview / Variant 04 / Wordmark-InntQ-period" d="M 1270.343501303476,643.2572696205085 C 1270.343501303476,648.504812394901 1265.9971136550596,652.7592454386258 1260.6269647410786,652.7592454386258 C 1255.2568158270974,652.7592454386258 1250.9104281786813,648.504812394901 1250.9104281786813,643.2572696205085 C 1250.9104281786813,638.009726846116 1255.2568158270974,633.7552938023912 1260.6269647410786,633.7552938023912 C 1265.9971136550596,633.7552938023912 1270.343501303476,638.009726846116 1270.343501303476,643.2572696205085" fill="#000000" fill-rule="evenodd" />
  <path id="05_Black_Overview / Variant 04 / Divider / Vertical" d="M 1293.9451831742836,588.0232037358394 L 1294.5582138722266,588.0232037358394 L 1294.5582138722266,651.1653656239739 L 1293.9451831742836,651.1653656239739 L 1293.9451831742836,588.0232037358394" fill="#000000" fill-rule="evenodd" />
  <path id="05_Black_Overview / Variant 04 / Chinese / Ying / Upper" d="M 1320.9185338837779,585.5710809440673 L 1364.750228786706,585.5710809440673 Q 1365.6697748336205,585.5710809440673 1365.6697748336205,586.4906269909818 L 1365.6697748336205,602.7359404864727 C 1365.6697748336205,606.414124674131 1363.52416739082,608.2532167679602 1359.8459832031617,608.2532167679602 L 1347.2788538953291,608.2532167679602 L 1347.2788538953291,611.9314009556185 L 1367.2023515784783,611.9314009556185 L 1367.2023515784783,618.0617079350491 L 1317.8533803940625,618.0617079350491 L 1317.8533803940625,613.1574623515046 Q 1317.8533803940625,611.9314009556185 1319.3859571389203,611.9314009556185 L 1336.8573320302971,611.9314009556185 L 1336.8573320302971,608.2532167679602 L 1319.6924724878918,608.2532167679602 L 1319.6924724878918,586.7971423399533 Q 1319.6924724878918,585.5710809440673 1320.9185338837779,585.5710809440673 M 1330.420509701895,591.0883572255547 L 1354.9417376196172,591.0883572255547 L 1354.9417376196172,594.4600260642414 L 1330.420509701895,594.4600260642414 L 1330.420509701895,591.0883572255547 M 1330.420509701895,599.3642716477859 L 1354.9417376196172,599.3642716477859 L 1354.9417376196172,601.5098790905865 Q 1354.9417376196172,602.4294251375012 1353.7156762237312,602.4294251375012 L 1330.420509701895,602.4294251375012 L 1330.420509701895,599.3642716477859" fill="#000000" fill-rule="evenodd" />
  <path id="05_Black_Overview / Variant 04 / Chinese / Ying / Lower" d="M 1321.2250492327494,621.1268614247642 L 1362.2981059949338,621.1268614247642 Q 1364.750228786706,621.1268614247642 1364.750228786706,623.5789842165365 L 1364.750228786706,632.7744446856823 Q 1364.750228786706,637.6786902692268 1359.8459832031617,637.6786902692268 L 1347.2788538953291,637.6786902692268 L 1347.2788538953291,647.3339237618297 Q 1347.2788538953291,651.0121079494882 1343.2941543586992,651.0121079494882 L 1333.9454362150677,651.0121079494882 L 1333.9454362150677,645.8013470169722 L 1335.9377859833826,645.8013470169722 Q 1337.010589704783,645.8013470169722 1337.010589704783,644.7285432955719 L 1337.010589704783,637.6786902692268 L 1319.539214813406,637.6786902692268 L 1319.539214813406,622.5061804951362 Q 1319.539214813406,621.1268614247643 1321.2250492327494,621.1268614247643 M 1330.420509701895,626.7973953807375 L 1353.7156762237312,626.7973953807375 L 1353.7156762237312,630.6288372428817 Q 1353.7156762237312,632.0081563132535 1352.1830994788734,632.0081563132535 L 1330.420509701895,632.0081563132535 L 1330.420509701895,626.7973953807375" fill="#000000" fill-rule="evenodd" />
  <path id="05_Black_Overview / Variant 04 / Chinese / Ying / Left Foot" d="M 1322.144595279664,640.1308130609989 L 1331.9530864467526,640.1308130609989 L 1327.0488408632082,650.5523349260309 L 1317.3936073706052,650.5523349260309 L 1322.144595279664,640.1308130609989" fill="#000000" fill-rule="evenodd" />
  <path id="05_Black_Overview / Variant 04 / Chinese / Ying / Right Foot" d="M 1351.723326455416,640.1308130609989 L 1360.918786924562,640.1308130609989 L 1365.8230325081063,650.5523349260309 L 1356.1677990155033,650.5523349260309 L 1351.723326455416,640.1308130609989" fill="#000000" fill-rule="evenodd" />
  <path id="05_Black_Overview / Variant 04 / Chinese / Ying / Upper Diagonal" d="M 1369.0414436723074,599.3642716477859 L 1383.4476650739691,586.4906269909818 Q 1384.0606957719122,585.8775962930388 1385.2867571677984,585.8775962930388 L 1392.6431255431148,585.8775962930388 L 1392.6431255431148,589.2492651317256 L 1373.3326585579089,606.2608669996453 L 1368.4284129743644,606.2608669996453 L 1368.4284129743644,600.2838176947005 Q 1368.4284129743644,599.8240446712432 1369.0414436723074,599.3642716477859" fill="#000000" fill-rule="evenodd" />
  <path id="05_Black_Overview / Variant 04 / Chinese / Ying / Middle Diagonal" d="M 1368.4284129743644,621.7398921227074 L 1390.9572911237715,602.4294251375012 Q 1392.1833525196575,601.3566214161008 1392.1833525196575,603.3489711844157 L 1392.1833525196575,612.8509470025331 L 1373.0261432089374,628.9430028235382 L 1368.4284129743644,628.9430028235382 L 1368.4284129743644,621.7398921227074" fill="#000000" fill-rule="evenodd" />
  <path id="05_Black_Overview / Variant 04 / Chinese / Ying / Lower Diagonal" d="M 1367.6621246019356,645.4948316680006 Q 1367.6621246019356,644.8818009700576 1368.4284129743644,644.1155125976288 L 1390.6507757748,624.9583032869084 Q 1392.1833525196575,623.885499565508 1392.1833525196575,626.0311070083087 L 1392.1833525196575,634.920052128483 L 1374.2522046048234,649.9393042280877 Q 1373.3326585579089,650.5523349260309 1372.4131125109943,650.5523349260309 L 1367.6621246019356,650.5523349260309 L 1367.6621246019356,645.4948316680006" fill="#000000" fill-rule="evenodd" />
  <path id="05_Black_Overview / Variant 04 / Chinese / Tuo / Upper Hand" d="M 1413.0263962497215,585.5710809440673 L 1421.149052997467,585.5710809440673 Q 1422.6816297423245,585.5710809440673 1422.6816297423245,587.1036576889248 L 1422.6816297423245,594.6132837387272 L 1430.6510288155841,594.6132837387272 L 1430.6510288155841,601.203363741615 Q 1430.6510288155841,603.3489711844157 1428.5054213727835,603.3489711844157 L 1422.6816297423245,603.3489711844157 L 1422.6816297423245,612.23791630459 L 1411.8003348538355,616.3758735157056 L 1411.8003348538355,603.3489711844157 L 1403.3711627571183,603.3489711844157 L 1403.3711627571183,596.2991181580707 Q 1403.3711627571183,594.6132837387272 1404.903739501976,594.6132837387272 L 1411.8003348538355,594.6132837387272 L 1411.8003348538355,586.7971423399533 Q 1411.8003348538355,585.5710809440673 1413.0263962497215,585.5710809440673" fill="#000000" fill-rule="evenodd" />
  <path id="05_Black_Overview / Variant 04 / Chinese / Tuo / Diagonal" d="M 1404.2907088040329,621.7398921227074 L 1429.8847404431554,610.2455665362751 L 1425.74678323204,620.2073153778497 Q 1425.1337525340969,621.7398921227074 1422.9881450912962,622.8126958441077 L 1403.3711627571183,631.088610266339 L 1403.3711627571183,623.5789842165365 Q 1403.3711627571183,622.3529228206504 1404.2907088040329,621.7398921227074" fill="#000000" fill-rule="evenodd" />
  <path id="05_Black_Overview / Variant 04 / Chinese / Tuo / Lower Hand" d="M 1411.8003348538355,631.5483832897962 L 1422.6816297423245,624.8050456124226 L 1422.6816297423245,645.3415739935149 Q 1422.6816297423245,651.3186232984597 1416.551322762894,651.3186232984597 L 1403.8309357805756,651.3186232984597 L 1403.8309357805756,645.3415739935149 Q 1403.8309357805756,643.1959665507142 1405.516770199919,643.1959665507142 L 1410.4210157834636,643.1959665507142 Q 1411.8003348538355,643.1959665507142 1411.8003348538355,641.9699051548281 L 1411.8003348538355,631.5483832897962" fill="#000000" fill-rule="evenodd" />
  <path id="05_Black_Overview / Variant 04 / Chinese / Tuo / Stone" d="M 1434.635728352214,585.5710809440673 L 1480.0,585.5710809440673 L 1480.0,592.0079032724693 Q 1480.0,594.1535107152699 1478.160907906171,594.1535107152699 L 1454.2527106863918,594.1535107152699 L 1448.5821767304185,608.2532167679602 L 1476.3218158123418,608.2532167679602 Q 1478.9271962785997,608.2532167679602 1478.9271962785997,610.7053395597324 L 1478.9271962785997,644.1155125976288 Q 1478.9271962785997,651.0121079494882 1471.1110548798256,651.0121079494882 L 1437.7008818419295,651.0121079494882 L 1437.7008818419295,630.6288372428817 L 1435.248759050157,634.920052128483 L 1425.4402678830684,634.920052128483 L 1443.2181581234167,594.1535107152699 L 1433.409666956328,594.1535107152699 L 1433.409666956328,587.1036576889248 Q 1433.409666956328,585.5710809440673 1434.635728352214,585.5710809440673 M 1448.7354344049043,616.6823888646771 L 1467.2796130176816,616.6823888646771 L 1467.2796130176816,641.6633898058566 Q 1467.2796130176816,643.0427088762284 1465.9002939473098,643.0427088762284 L 1448.7354344049043,643.0427088762284 L 1448.7354344049043,616.6823888646771" fill="#000000" fill-rule="evenodd" />
  <text id="05_Black_Overview / Variants / Label 05" x="96" y="796" font-family="PingFang SC" font-size="20" font-weight="500" fill="#000000">图案 + 中文</text>
  <path id="05_Black_Overview / Variant 05 / Body / Initiating" d="M 147.41733537040088,843.7932022646083 L 147.41733537040088,906.2039990950504 C 147.41733537040088,910.2120319190237 145.76831615139469,913.006203373451 142.2641503110066,914.7239317265824 L 118.33046859070862,926.5419027961266 C 113.0398652630638,929.1757529375948 109.81053595917672,933.0005614039007 109.81053595917672,938.2682616868371 L 109.81053595917672,941.2456574989317 C 109.81053595917672,942.7343554049789 108.9402202602568,943.3069315226894 107.45152235420954,943.3069315226894 L 104.47412654211507,943.3069315226894 C 99.54997192980495,943.3069315226894 96.0,940.7646935600549 96.0,936.3902120207468 L 96.0,867.2688230907379 C 96.0,863.9478816080172 97.5574070401725,861.5659649583416 100.809639388768,859.9856548734607 L 142.1267320427561,840.6554851395549 C 145.12703089955897,839.2125933229246 147.4173353704009,840.1058120665529 147.4173353704009,843.7932022646083" fill="#000000" fill-rule="evenodd" />
  <path id="05_Black_Overview / Variant 05 / Body / Responding" d="M 161.61722308962072,926.0151327678329 L 161.61722308962072,994.1516907753798 C 161.61722308962072,1000.175191533694 157.4030628632716,1004.0 151.19633774729004,1004.0 L 99.66448715334705,1004.0 L 114.55146621381948,971.2486460669606 C 116.86467372936981,966.1641701416917 118.21595336716652,961.6293672894246 118.53659599308439,957.8961710019523 L 119.77336040733903,944.7956294287367 C 120.07109998854848,940.8104996494717 122.15527705701462,938.1308434185867 126.00298856802902,936.3215028866216 L 154.33405487234347,922.4422577933195 C 158.15886333864944,920.5642081272292 161.61722308962072,921.8467786309006 161.61722308962072,926.0151327678329" fill="#000000" fill-rule="evenodd" />
  <path id="05_Black_Overview / Variant 05 / Chinese / Ying / Upper" d="M 204.1120147562874,876.1953125 L 265.18493142295415,876.1953125 Q 266.46618142295415,876.1953125 266.46618142295415,877.4765625 L 266.46618142295415,900.1119791666667 C 266.46618142295415,905.2369791666667 263.4765980896208,907.7994791666667 258.3515980896208,907.7994791666667 L 240.84118142295412,907.7994791666667 L 240.84118142295412,912.9244791666667 L 268.6015980896208,912.9244791666667 L 268.6015980896208,921.4661458333334 L 199.8411814229541,921.4661458333334 L 199.8411814229541,914.6328125 Q 199.8411814229541,912.9244791666667 201.97659808962075,912.9244791666667 L 226.32034808962078,912.9244791666667 L 226.32034808962078,907.7994791666667 L 202.4036814229541,907.7994791666667 L 202.4036814229541,877.9036458333334 Q 202.4036814229541,876.1953125 204.1120147562874,876.1953125 M 217.35159808962078,883.8828125 L 251.51826475628746,883.8828125 L 251.51826475628746,888.5807291666667 L 217.35159808962078,888.5807291666667 L 217.35159808962078,883.8828125 M 217.35159808962078,895.4140625 L 251.51826475628746,895.4140625 L 251.51826475628746,898.4036458333334 Q 251.51826475628746,899.6848958333334 249.80993142295412,899.6848958333334 L 217.35159808962078,899.6848958333334 L 217.35159808962078,895.4140625" fill="#000000" fill-rule="evenodd" />
  <path id="05_Black_Overview / Variant 05 / Chinese / Ying / Lower" d="M 204.53909808962075,925.7369791666667 L 261.76826475628746,925.7369791666667 Q 265.18493142295415,925.7369791666667 265.18493142295415,929.1536458333334 L 265.18493142295415,941.9661458333334 Q 265.18493142295415,948.7994791666667 258.3515980896208,948.7994791666667 L 240.84118142295412,948.7994791666667 L 240.84118142295412,962.2526041666667 Q 240.84118142295412,967.3776041666667 235.28909808962078,967.3776041666667 L 222.2630564229541,967.3776041666667 L 222.2630564229541,960.1171875000001 L 225.03909808962078,960.1171875000001 Q 226.53388975628744,960.1171875000001 226.53388975628744,958.6223958333334 L 226.53388975628744,948.7994791666667 L 202.1901397562874,948.7994791666667 L 202.1901397562874,927.6588541666667 Q 202.1901397562874,925.7369791666667 204.53909808962075,925.7369791666667 M 217.35159808962078,933.6380208333334 L 249.80993142295412,933.6380208333334 L 249.80993142295412,938.9765625 Q 249.80993142295412,940.8984375 247.67451475628746,940.8984375 L 217.35159808962078,940.8984375 L 217.35159808962078,933.6380208333334" fill="#000000" fill-rule="evenodd" />
  <path id="05_Black_Overview / Variant 05 / Chinese / Ying / Left Foot" d="M 205.82034808962078,952.2161458333334 L 219.48701475628744,952.2161458333334 L 212.6536814229541,966.7369791666667 L 199.2005564229541,966.7369791666667 L 205.82034808962078,952.2161458333334" fill="#000000" fill-rule="evenodd" />
  <path id="05_Black_Overview / Variant 05 / Chinese / Ying / Right Foot" d="M 247.03388975628746,952.2161458333334 L 259.84638975628746,952.2161458333334 L 266.6797230896208,966.7369791666667 L 253.2265980896208,966.7369791666667 L 247.03388975628746,952.2161458333334" fill="#000000" fill-rule="evenodd" />
  <path id="05_Black_Overview / Variant 05 / Chinese / Ying / Upper Diagonal" d="M 271.1640980896208,895.4140625 L 291.2370147562875,877.4765625 Q 292.09118142295415,876.6223958333334 293.7995147562875,876.6223958333334 L 304.0495147562875,876.6223958333334 L 304.0495147562875,881.3203125 L 277.14326475628746,905.0234375 L 270.30993142295415,905.0234375 L 270.30993142295415,896.6953125 Q 270.30993142295415,896.0546875 271.1640980896208,895.4140625" fill="#000000" fill-rule="evenodd" />
  <path id="05_Black_Overview / Variant 05 / Chinese / Ying / Middle Diagonal" d="M 270.30993142295415,926.5911458333334 L 301.70055642295415,899.6848958333334 Q 303.4088897562875,898.1901041666667 303.4088897562875,900.9661458333334 L 303.4088897562875,914.2057291666667 L 276.71618142295415,936.6276041666667 L 270.30993142295415,936.6276041666667 L 270.30993142295415,926.5911458333334" fill="#000000" fill-rule="evenodd" />
  <path id="05_Black_Overview / Variant 05 / Chinese / Ying / Lower Diagonal" d="M 269.2422230896208,959.6901041666667 Q 269.2422230896208,958.8359375000001 270.30993142295415,957.7682291666667 L 301.27347308962084,931.0755208333334 Q 303.4088897562875,929.5807291666667 303.4088897562875,932.5703125 L 303.4088897562875,944.9557291666667 L 278.42451475628746,965.8828125000001 Q 277.14326475628746,966.7369791666667 275.86201475628746,966.7369791666667 L 269.2422230896208,966.7369791666667 L 269.2422230896208,959.6901041666667" fill="#000000" fill-rule="evenodd" />
  <path id="05_Black_Overview / Variant 05 / Chinese / Tuo / Upper Hand" d="M 332.45055642295415,876.1953125 L 343.7682647562875,876.1953125 Q 345.90368142295415,876.1953125 345.90368142295415,878.3307291666667 L 345.90368142295415,888.7942708333334 L 357.00784808962084,888.7942708333334 L 357.00784808962084,897.9765625 Q 357.00784808962084,900.9661458333334 354.0182647562875,900.9661458333334 L 345.90368142295415,900.9661458333334 L 345.90368142295415,913.3515625 L 330.74222308962084,919.1171875 L 330.74222308962084,900.9661458333334 L 318.99743142295415,900.9661458333334 L 318.99743142295415,891.1432291666667 Q 318.99743142295415,888.7942708333334 321.13284808962084,888.7942708333334 L 330.74222308962084,888.7942708333334 L 330.74222308962084,877.9036458333334 Q 330.74222308962084,876.1953125 332.45055642295415,876.1953125" fill="#000000" fill-rule="evenodd" />
  <path id="05_Black_Overview / Variant 05 / Chinese / Tuo / Diagonal" d="M 320.27868142295415,926.5911458333334 L 355.9401397562875,910.5755208333334 L 350.1745147562875,924.4557291666667 Q 349.3203480896209,926.5911458333334 346.3307647562875,928.0859375 L 318.99743142295415,939.6171875 L 318.99743142295415,929.1536458333334 Q 318.99743142295415,927.4453125 320.27868142295415,926.5911458333334" fill="#000000" fill-rule="evenodd" />
  <path id="05_Black_Overview / Variant 05 / Chinese / Tuo / Lower Hand" d="M 330.74222308962084,940.2578125 L 345.90368142295415,930.8619791666667 L 345.90368142295415,959.4765625000001 Q 345.90368142295415,967.8046875000001 337.3620147562875,967.8046875000001 L 319.63805642295415,967.8046875000001 L 319.63805642295415,959.4765625000001 Q 319.63805642295415,956.4869791666667 321.9870147562875,956.4869791666667 L 328.82034808962084,956.4869791666667 Q 330.74222308962084,956.4869791666667 330.74222308962084,954.7786458333334 L 330.74222308962084,940.2578125" fill="#000000" fill-rule="evenodd" />
  <path id="05_Black_Overview / Variant 05 / Chinese / Tuo / Stone" d="M 362.5599314229542,876.1953125 L 425.7682647562876,876.1953125 L 425.7682647562876,885.1640625 Q 425.7682647562876,888.1536458333334 423.2057647562876,888.1536458333334 L 389.8932647562875,888.1536458333334 L 381.9922230896209,907.7994791666667 L 420.6432647562876,907.7994791666667 Q 424.2734730896209,907.7994791666667 424.2734730896209,911.2161458333334 L 424.2734730896209,957.7682291666667 Q 424.2734730896209,967.3776041666667 413.3828480896209,967.3776041666667 L 366.8307647562875,967.3776041666667 L 366.8307647562875,938.9765625 L 363.41409808962084,944.9557291666667 L 349.74743142295415,944.9557291666667 L 374.5182647562875,888.1536458333334 L 360.85159808962084,888.1536458333334 L 360.85159808962084,878.3307291666667 Q 360.85159808962084,876.1953125 362.55993142295415,876.1953125 M 382.2057647562875,919.5442708333334 L 408.0443064229542,919.5442708333334 L 408.0443064229542,954.3515625000001 Q 408.0443064229542,956.2734375000001 406.1224314229542,956.2734375000001 L 382.2057647562875,956.2734375000001 L 382.2057647562875,919.5442708333334" fill="#000000" fill-rule="evenodd" />
  <text id="05_Black_Overview / Variants / Label 06" x="856" y="796" font-family="PingFang SC" font-size="20" font-weight="500" fill="#000000">中英文字标</text>
  <path id="05_Black_Overview / Variant 06 / Wordmark-InntQ-I" d="M 857.9476667188162,840.0 L 878.2590482150422,840.0 C 879.5111196771383,840.0 880.3458339852024,840.69559525672 880.3458339852024,841.9476667188162 L 880.3458339852024,928.4797166547926 C 880.3458339852024,929.7317881168887 879.5111196771383,930.4273833736088 878.2590482150422,930.4273833736088 L 857.9476667188162,930.4273833736088 C 856.69559525672,930.4273833736088 856.0,929.7317881168887 856.0,928.4797166547926 L 856.0,841.9476667188162 C 856.0,840.69559525672 856.69559525672,840.0 857.9476667188162,840.0" fill="#000000" fill-rule="evenodd" />
  <path id="05_Black_Overview / Variant 06 / Wordmark-InntQ-n01" d="M 891.6840366697395,859.7549052908499 L 930.9851686744232,859.7549052908499 C 948.583728669441,859.7549052908499 961.5913599701063,871.8582627577791 961.5913599701063,890.987132317581 L 961.5913599701063,928.5492761804646 C 961.5913599701063,929.7317881168887 960.8957647133861,930.4273833736088 959.713252776962,930.4273833736088 L 940.3061451144722,930.4273833736088 C 939.1236331780481,930.4273833736088 938.428037921328,929.7317881168887 938.428037921328,928.5492761804646 L 938.428037921328,893.2130371390851 C 938.428037921328,884.7267750071003 933.3501925472715,879.0924534276678 924.5161327869266,879.0924534276678 L 913.8039658334376,879.0924534276678 C 912.3432157943255,879.0924534276678 911.6476205376053,879.7880486843878 911.6476205376053,881.2487987235 L 911.6476205376053,928.5492761804646 C 911.6476205376053,929.7317881168887 910.9520252808853,930.4273833736088 909.7695133444612,930.4273833736088 L 891.6840366697395,930.4273833736088 C 890.5015247333154,930.4273833736088 889.8059294765952,929.7317881168887 889.8059294765952,928.5492761804646 L 889.8059294765952,861.6330124839941 C 889.8059294765952,860.45050054757 890.5015247333154,859.7549052908499 891.6840366697395,859.7549052908499" fill="#000000" fill-rule="evenodd" />
  <path id="05_Black_Overview / Variant 06 / Wordmark-InntQ-n02" d="M 969.868943525075,859.7549052908499 L 1009.1700755297588,859.7549052908499 C 1027.2555522044806,859.7549052908499 1040.332743030818,871.8582627577791 1040.332743030818,890.987132317581 L 1040.332743030818,928.5492761804646 C 1040.332743030818,929.7317881168887 1039.6371477740977,930.4273833736088 1038.4546358376738,930.4273833736088 L 1019.0475281751837,930.4273833736088 C 1017.8650162387596,930.4273833736088 1017.1694209820396,929.7317881168887 1017.1694209820396,928.5492761804646 L 1017.1694209820396,893.2130371390851 C 1017.1694209820396,884.7267750071003 1012.0915756079831,879.0924534276678 1003.2575158476383,879.0924534276678 L 991.9888726887732,879.0924534276678 C 990.528122649661,879.0924534276678 989.832527392941,879.7880486843878 989.832527392941,881.2487987235 L 989.832527392941,928.5492761804646 C 989.832527392941,929.7317881168887 989.1369321362209,930.4273833736088 987.9544201997968,930.4273833736088 L 969.868943525075,930.4273833736088 C 968.686431588651,930.4273833736088 967.9908363319308,929.7317881168887 967.9908363319308,928.5492761804646 L 967.9908363319308,861.6330124839941 C 967.9908363319308,860.45050054757 968.686431588651,859.7549052908499 969.868943525075,859.7549052908499" fill="#000000" fill-rule="evenodd" />
  <path id="05_Black_Overview / Variant 06 / Wordmark-InntQ-t" d="M 1060.991922155404,840.0 L 1080.0512321895337,840.0 C 1081.2337441259579,840.0 1081.9293393826779,840.69559525672 1081.9293393826779,841.8781071931442 L 1081.9293393826779,859.7549052908499 L 1103.005875661296,859.7549052908499 C 1104.18838759772,859.7549052908499 1104.88398285444,860.45050054757 1104.88398285444,861.6330124839941 L 1104.88398285444,877.9099414912437 C 1104.88398285444,879.0924534276678 1104.18838759772,879.7880486843878 1103.005875661296,879.7880486843878 L 1081.9293393826779,879.7880486843878 L 1081.9293393826779,902.74269215615 C 1081.9293393826779,909.6290851976787 1086.1724704486703,913.3157400582951 1092.363268233479,913.3157400582951 L 1103.005875661296,913.3157400582951 C 1104.18838759772,913.3157400582951 1104.88398285444,914.0113353150151 1104.88398285444,915.1938472514393 L 1104.88398285444,928.5492761804646 C 1104.88398285444,929.7317881168887 1104.18838759772,930.4273833736088 1103.005875661296,930.4273833736088 L 1090.2764824633186,930.4273833736088 C 1070.4520176467968,930.4273833736088 1059.1138149622598,918.6022640093677 1059.1138149622598,901.35150164271 L 1059.1138149622598,879.7880486843878 L 1046.8713384439866,879.7880486843878 C 1045.6888265075625,879.7880486843878 1044.9932312508422,879.0924534276678 1044.9932312508422,877.9099414912437 L 1044.9932312508422,861.6330124839941 C 1044.9932312508422,860.45050054757 1045.6888265075625,859.7549052908499 1046.8713384439866,859.7549052908499 L 1059.1138149622598,859.7549052908499 L 1059.1138149622598,841.8781071931442 C 1059.1138149622598,840.69559525672 1059.8094102189798,840.0 1060.991922155404,840.0" fill="#000000" fill-rule="evenodd" />
  <path id="05_Black_Overview / Variant 06 / Wordmark-InntQ-Q" d="M 1192.2597591754864,915.7680453811472 L 1206.256539540705,928.2096279280083 C 1206.888224959657,928.7711260781879 1206.945122983017,929.738392475305 1206.3836248328373,930.370077894257 L 1200.0986794764779,937.4406414201612 C 1199.5371813262984,938.0723268391132 1198.5699149291813,938.129224862473 1197.9382295102293,937.5677267122935 L 1182.3596700715734,923.7201183223771 C 1175.265028477555,927.9733328454284 1166.906428977612,930.4273833736088 1157.9579009421814,930.4273833736088 C 1132.2571519005596,930.4273833736088 1111.4225782676087,910.1845240889778 1111.4225782676087,885.2136916868044 C 1111.4225782676087,860.242859284631 1132.2571519005596,840.0 1157.9579009421814,840.0 C 1183.6586499838027,840.0 1204.4932236167538,860.242859284631 1204.4932236167538,885.2136916868044 C 1204.4932236167538,896.9936081941194 1199.8565876223142,907.7213366066001 1192.2597591754864,915.7680453811472 M 1177.2544098869143,902.4299571246388 L 1170.9819309362022,896.8544202795614 C 1170.3502455172502,896.2929221293819 1169.3829791201333,896.3498201527417 1168.8214809699537,896.9815055716937 L 1162.5365356135942,904.0520690975981 C 1161.9750374634148,904.68375451655 1162.0319354867745,905.651020913667 1162.6636209057265,906.2125190638466 L 1166.8298394369622,909.9158244249448 C 1164.1116038583586,910.9447276700403 1161.1690949921099,911.507192390823 1158.0970199935252,911.507192390823 C 1144.3054371744788,911.507192390823 1133.1251502772748,900.1711911914296 1133.1251502772748,886.1875250462125 C 1133.1251502772748,872.2038589009953 1144.3054371744788,860.867857701602 1158.0970199935252,860.867857701602 C 1171.8886028125717,860.867857701602 1183.0688897097757,872.2038589009953 1183.0688897097757,886.1875250462125 C 1183.0688897097757,892.3692951444127 1180.8839646112096,898.0336411688023 1177.2544098869143,902.4299571246388" fill="#000000" fill-rule="evenodd" />
  <path id="05_Black_Overview / Variant 06 / Wordmark-InntQ-period" d="M 1242.106422201737,921.1064069335598 C 1242.106422201737,927.0607023310837 1237.1746518315917,931.8881334127209 1231.0812373827239,931.8881334127209 C 1224.987822933856,931.8881334127209 1220.0560525637109,927.0607023310837 1220.0560525637109,921.1064069335598 C 1220.0560525637109,915.152111536036 1224.987822933856,910.3246804543988 1231.0812373827239,910.3246804543988 C 1237.1746518315917,910.3246804543988 1242.106422201737,915.152111536036 1242.106422201737,921.1064069335598" fill="#000000" fill-rule="evenodd" />
  <path id="05_Black_Overview / Variant 06 / Divider / Vertical" d="M 1268.8868395854595,858.4332743030818 L 1269.5824348421797,858.4332743030818 L 1269.5824348421797,930.0795857452488 L 1268.8868395854595,930.0795857452488 L 1268.8868395854595,858.4332743030818" fill="#000000" fill-rule="evenodd" />
  <path id="05_Black_Overview / Variant 06 / Chinese / Ying / Upper" d="M 1299.4930308811427,855.6508932762015 L 1349.2280917366274,855.6508932762015 Q 1350.2714846217075,855.6508932762015 1350.2714846217075,856.6942861612816 L 1350.2714846217075,875.1275604643635 C 1350.2714846217075,879.3011320046838 1347.8369012231872,881.387917774844 1343.6633296828668,881.387917774844 L 1329.4036269201054,881.387917774844 L 1329.4036269201054,885.5614893151644 L 1352.0104727635076,885.5614893151644 L 1352.0104727635076,892.5174418823651 L 1296.015054597542,892.5174418823651 L 1296.015054597542,886.9526798286046 Q 1296.015054597542,885.5614893151644 1297.7540427393424,885.5614893151644 L 1317.5785075558642,885.5614893151644 L 1317.5785075558642,881.387917774844 L 1298.1018403677024,881.387917774844 L 1298.1018403677024,857.0420837896417 Q 1298.1018403677024,855.6508932762015 1299.4930308811424,855.6508932762015 M 1310.2747573603035,861.9112505866822 L 1338.0985676291061,861.9112505866822 L 1338.0985676291061,865.7370244986425 L 1310.2747573603035,865.7370244986425 L 1310.2747573603035,861.9112505866822 M 1310.2747573603035,871.3017865524031 L 1338.0985676291061,871.3017865524031 L 1338.0985676291061,873.7363699509233 Q 1338.0985676291061,874.7797628360033 1336.707377115666,874.7797628360033 L 1310.2747573603035,874.7797628360033 L 1310.2747573603035,871.3017865524031" fill="#000000" fill-rule="evenodd" />
  <path id="05_Black_Overview / Variant 06 / Chinese / Ying / Lower" d="M 1299.8408285095024,895.9954181659655 L 1346.4457107097471,895.9954181659655 Q 1349.2280917366274,895.9954181659655 1349.2280917366274,898.7777991928457 L 1349.2280917366274,909.2117280436466 Q 1349.2280917366274,914.7764900974073 1343.6633296828668,914.7764900974073 L 1329.4036269201054,914.7764900974073 L 1329.4036269201054,925.7321153907483 Q 1329.4036269201054,929.9056869310687 1324.882257751425,929.9056869310687 L 1314.274430086444,929.9056869310687 L 1314.274430086444,923.9931272489481 L 1316.5351146707842,923.9931272489481 Q 1317.7524063700444,923.9931272489481 1317.7524063700444,922.775835549688 L 1317.7524063700444,914.7764900974073 L 1297.9279415535225,914.7764900974073 L 1297.9279415535225,897.5605074935855 Q 1297.9279415535225,895.9954181659655 1299.8408285095024,895.9954181659655 M 1310.2747573603035,902.429674290626 L 1336.707377115666,902.429674290626 L 1336.707377115666,906.7771446451264 Q 1336.707377115666,908.3422339727466 1334.968388973866,908.3422339727466 L 1310.2747573603035,908.3422339727466 L 1310.2747573603035,902.429674290626" fill="#000000" fill-rule="evenodd" />
  <path id="05_Black_Overview / Variant 06 / Chinese / Ying / Left Foot" d="M 1300.8842213945827,917.5588711242875 L 1312.0137455021038,917.5588711242875 L 1306.4489834483431,929.3839904885286 L 1295.4933581550022,929.3839904885286 L 1300.8842213945827,917.5588711242875" fill="#000000" fill-rule="evenodd" />
  <path id="05_Black_Overview / Variant 06 / Chinese / Ying / Right Foot" d="M 1334.4466925313259,917.5588711242875 L 1344.880621382127,917.5588711242875 L 1350.4453834358874,929.3839904885286 L 1339.4897581425464,929.3839904885286 L 1334.4466925313259,917.5588711242875" fill="#000000" fill-rule="evenodd" />
  <path id="05_Black_Overview / Variant 06 / Chinese / Ying / Upper Diagonal" d="M 1354.0972585336679,871.3017865524031 L 1370.4437470665894,856.6942861612816 Q 1371.1393423233094,855.9986909045615 1372.5305328367494,855.9986909045615 L 1380.8776759173904,855.9986909045615 L 1380.8776759173904,859.8244648165219 L 1358.9664253307083,879.1272331905038 L 1353.4016632769476,879.1272331905038 L 1353.4016632769476,872.3451794374831 Q 1353.4016632769476,871.8234829949431 1354.0972585336679,871.301786552403" fill="#000000" fill-rule="evenodd" />
  <path id="05_Black_Overview / Variant 06 / Chinese / Ying / Middle Diagonal" d="M 1353.4016632769476,896.6910134226855 L 1378.9647889614102,874.7797628360033 Q 1380.3559794748503,873.5624711367433 1380.3559794748503,875.8231557210835 L 1380.3559794748503,886.6048822002446 L 1358.6186277023482,904.8642576891463 L 1353.4016632769476,904.8642576891463 L 1353.4016632769476,896.6910134226855" fill="#000000" fill-rule="evenodd" />
  <path id="05_Black_Overview / Variant 06 / Chinese / Ying / Lower Diagonal" d="M 1352.5321692060477,923.6453296205881 Q 1352.5321692060477,922.9497343638681 1353.4016632769476,922.0802402929679 L 1378.6169913330502,900.3428885204659 Q 1380.3559794748503,899.1255968212057 1380.3559794748503,901.5601802197259 L 1380.3559794748503,911.646311442167 L 1360.0098182157883,928.6883952318086 Q 1358.9664253307083,929.3839904885286 1357.9230324456282,929.3839904885286 L 1352.5321692060477,929.3839904885286 L 1352.5321692060477,923.6453296205881" fill="#000000" fill-rule="evenodd" />
  <path id="05_Black_Overview / Variant 06 / Chinese / Tuo / Upper Hand" d="M 1404.0062182033325,855.6508932762015 L 1413.2228553548734,855.6508932762015 Q 1414.9618434966737,855.6508932762015 1414.9618434966737,857.3898814180017 L 1414.9618434966737,865.9109233128225 L 1424.0045818340345,865.9109233128225 L 1424.0045818340345,873.3885723225633 Q 1424.0045818340345,875.8231557210835 1421.5699984355142,875.8231557210835 L 1414.9618434966737,875.8231557210835 L 1414.9618434966737,885.9092869435244 L 1402.6150276898925,890.6045549263849 L 1402.6150276898925,875.8231557210835 L 1393.0505929099916,875.8231557210835 L 1393.0505929099916,867.8238102688027 Q 1393.0505929099916,865.9109233128225 1394.7895810517916,865.9109233128225 L 1402.6150276898925,865.9109233128225 L 1402.6150276898925,857.0420837896417 Q 1402.6150276898925,855.6508932762015 1404.0062182033325,855.6508932762015" fill="#000000" fill-rule="evenodd" />
  <path id="05_Black_Overview / Variant 06 / Chinese / Tuo / Diagonal" d="M 1394.0939857950716,896.6910134226855 L 1423.1350877631344,883.6486023591842 L 1418.439819780274,894.9520252808853 Q 1417.744224523554,896.6910134226855 1415.3096411250337,897.9083051219457 L 1393.0505929099916,907.2988410876665 L 1393.0505929099916,898.7777991928457 Q 1393.0505929099916,897.3866086794055 1394.0939857950716,896.6910134226855" fill="#000000" fill-rule="evenodd" />
  <path id="05_Black_Overview / Variant 06 / Chinese / Tuo / Lower Hand" d="M 1402.6150276898925,907.8205375302066 L 1414.9618434966737,900.1689897062859 L 1414.9618434966737,923.4714308064081 Q 1414.9618434966737,930.2534845594288 1408.005890929473,930.2534845594288 L 1393.5722893525317,930.2534845594288 L 1393.5722893525317,923.4714308064081 Q 1393.5722893525317,921.0368474078879 1395.4851763085117,921.0368474078879 L 1401.0499383622723,921.0368474078879 Q 1402.6150276898925,921.0368474078879 1402.6150276898925,919.6456568944477 L 1402.6150276898925,907.8205375302066" fill="#000000" fill-rule="evenodd" />
  <path id="05_Black_Overview / Variant 06 / Chinese / Tuo / Stone" d="M 1428.525951002715,855.6508932762015 L 1480.0,855.6508932762015 L 1480.0,862.9546434717622 Q 1480.0,865.3892268702824 1477.91321422984,865.3892268702824 L 1450.784999217757,865.3892268702824 L 1444.3507430930965,881.387917774844 L 1475.8264284596796,881.387917774844 Q 1478.78270830074,881.387917774844 1478.7827083007398,884.1702988017242 L 1478.7827083007398,922.0802402929679 Q 1478.7827083007398,929.9056869310687 1469.913868777559,929.9056869310687 L 1432.0039272863155,929.9056869310687 L 1432.0039272863155,906.7771446451264 L 1429.221546259435,911.646311442167 L 1418.092022151914,911.646311442167 L 1438.264284596796,865.3892268702824 L 1427.1347604892749,865.3892268702824 L 1427.1347604892749,857.3898814180017 Q 1427.1347604892749,855.6508932762015 1428.525951002715,855.6508932762015 M 1444.5246419072764,890.952352554745 L 1465.5663984230587,890.952352554745 L 1465.5663984230587,919.2978592660877 Q 1465.5663984230587,920.8629485937079 1464.0013090954385,920.8629485937079 L 1444.5246419072764,920.8629485937079 L 1444.5246419072764,890.952352554745" fill="#000000" fill-rule="evenodd" />
  <text id="05_Black_Overview / Variants / Footer" x="96" y="1144" font-family="PingFang SC" font-size="18" font-weight="400" fill="#111416">黑色版本 #000000 · InntQ. / 影拓</text>
</svg>
